<svg xmlns="http://www.w3.org/2000/svg" viewBox="0 0 630 354.375"><defs><style>.cls-1{fill:#8ac640;}.cls-10,.cls-12,.cls-13,.cls-2,.cls-3,.cls-5,.cls-8,.cls-9{fill:none;}.cls-3{stroke:#76b900;}.cls-12,.cls-3,.cls-5,.cls-8,.cls-9{stroke-miterlimit:10;}.cls-3,.cls-5{stroke-width:3.009px;}.cls-4{fill:#76b900;}.cls-5{stroke:#0071c5;}.cls-6{fill:#0071c5;}.cls-7{fill:gray;}.cls-12,.cls-13,.cls-8{stroke:#8ac640;}.cls-8{stroke-width:6.018px;}.cls-10,.cls-9{stroke:#6f3a96;stroke-width:1.504px;}.cls-10,.cls-13{stroke-linejoin:round;}.cls-11{fill:#6f3a96;}.cls-12,.cls-13{stroke-width:4.513px;}</style></defs><title>Artboard 4</title><g id="Layer_2" data-name="Layer 2"><rect class="cls-1" x="468.873" y="133.581" width="2.417" height="2.417"/><rect class="cls-1" x="472.498" y="133.581" width="2.417" height="2.417"/><rect class="cls-1" x="468.873" y="137.206" width="2.417" height="2.417"/><rect class="cls-1" x="472.498" y="137.206" width="2.417" height="2.417"/><rect class="cls-1" x="468.873" y="140.832" width="2.417" height="2.417"/><rect class="cls-1" x="472.498" y="140.832" width="2.417" height="2.417"/><rect class="cls-1" x="468.873" y="144.458" width="2.417" height="2.417"/><rect class="cls-1" x="468.873" y="148.084" width="2.417" height="2.417"/><rect class="cls-1" x="468.873" y="151.71" width="2.417" height="2.417"/><rect class="cls-1" x="468.873" y="155.335" width="2.417" height="2.417"/><rect class="cls-1" x="472.498" y="155.335" width="2.417" height="2.417"/><rect class="cls-1" x="468.873" y="158.961" width="2.417" height="2.417"/><rect class="cls-1" x="472.498" y="158.961" width="2.417" height="2.417"/><rect class="cls-1" x="468.873" y="162.587" width="2.417" height="2.417"/><rect class="cls-1" x="472.498" y="162.587" width="2.417" height="2.417"/><rect class="cls-1" x="476.124" y="133.581" width="2.417" height="2.417"/><rect class="cls-1" x="479.75" y="133.581" width="2.417" height="2.417"/><rect class="cls-1" x="476.124" y="137.206" width="2.417" height="2.417"/><rect class="cls-1" x="479.75" y="137.206" width="2.417" height="2.417"/><rect class="cls-2" x="476.124" y="140.832" width="2.417" height="2.417"/><rect class="cls-2" x="479.75" y="140.832" width="2.417" height="2.417"/><rect class="cls-2" x="476.124" y="155.335" width="2.417" height="2.417"/><rect class="cls-2" x="479.75" y="155.335" width="2.417" height="2.417"/><rect class="cls-1" x="476.124" y="158.961" width="2.417" height="2.417"/><rect class="cls-1" x="479.75" y="158.961" width="2.417" height="2.417"/><rect class="cls-1" x="476.124" y="162.587" width="2.417" height="2.417"/><rect class="cls-1" x="479.75" y="162.587" width="2.417" height="2.417"/><rect class="cls-1" x="483.376" y="133.581" width="2.417" height="2.417"/><rect class="cls-1" x="487.002" y="133.581" width="2.417" height="2.417"/><rect class="cls-1" x="483.376" y="137.206" width="2.417" height="2.417"/><rect class="cls-1" x="487.002" y="137.206" width="2.417" height="2.417"/><rect class="cls-2" x="483.376" y="140.832" width="2.417" height="2.417"/><rect class="cls-2" x="487.002" y="140.832" width="2.417" height="2.417"/><rect class="cls-2" x="483.376" y="155.335" width="2.417" height="2.417"/><rect class="cls-2" x="487.002" y="155.335" width="2.417" height="2.417"/><rect class="cls-1" x="483.376" y="158.961" width="2.417" height="2.417"/><rect class="cls-1" x="487.002" y="158.961" width="2.417" height="2.417"/><rect class="cls-1" x="483.376" y="162.587" width="2.417" height="2.417"/><rect class="cls-1" x="487.002" y="162.587" width="2.417" height="2.417"/><rect class="cls-1" x="490.627" y="133.581" width="2.417" height="2.417"/><rect class="cls-1" x="494.253" y="133.581" width="2.417" height="2.417"/><rect class="cls-1" x="490.627" y="137.206" width="2.417" height="2.417"/><rect class="cls-1" x="494.253" y="137.206" width="2.417" height="2.417"/><rect class="cls-2" x="490.627" y="140.832" width="2.417" height="2.417"/><rect class="cls-1" x="494.253" y="140.832" width="2.417" height="2.417"/><rect class="cls-1" x="472.498" y="144.458" width="2.417" height="2.417"/><rect class="cls-1" x="472.498" y="148.084" width="2.417" height="2.417"/><rect class="cls-1" x="472.498" y="151.71" width="2.417" height="2.417"/><rect class="cls-2" x="476.124" y="144.458" width="2.417" height="2.417"/><rect class="cls-2" x="479.75" y="144.458" width="2.417" height="2.417"/><rect class="cls-2" x="476.124" y="148.084" width="2.417" height="2.417"/><rect class="cls-2" x="479.75" y="148.084" width="2.417" height="2.417"/><rect class="cls-2" x="476.124" y="151.71" width="2.417" height="2.417"/><rect class="cls-2" x="479.75" y="151.71" width="2.417" height="2.417"/><rect class="cls-2" x="483.376" y="144.458" width="2.417" height="2.417"/><rect class="cls-2" x="487.002" y="144.458" width="2.417" height="2.417"/><rect class="cls-2" x="483.376" y="148.084" width="2.417" height="2.417"/><rect class="cls-2" x="487.002" y="148.084" width="2.417" height="2.417"/><rect class="cls-2" x="483.376" y="151.71" width="2.417" height="2.417"/><rect class="cls-2" x="487.002" y="151.71" width="2.417" height="2.417"/><rect class="cls-2" x="490.627" y="144.458" width="2.417" height="2.417"/><rect class="cls-1" x="494.253" y="144.458" width="2.417" height="2.417"/><rect class="cls-2" x="490.627" y="148.084" width="2.417" height="2.417"/><rect class="cls-1" x="494.253" y="148.084" width="2.417" height="2.417"/><rect class="cls-2" x="490.627" y="151.71" width="2.417" height="2.417"/><rect class="cls-1" x="494.253" y="151.71" width="2.417" height="2.417"/><rect class="cls-2" x="490.627" y="155.335" width="2.417" height="2.417"/><rect class="cls-1" x="494.253" y="155.335" width="2.417" height="2.417"/><rect class="cls-1" x="490.627" y="158.961" width="2.417" height="2.417"/><rect class="cls-1" x="494.253" y="158.961" width="2.417" height="2.417"/><rect class="cls-1" x="490.627" y="162.587" width="2.417" height="2.417"/><rect class="cls-1" x="497.879" y="133.581" width="2.417" height="2.417"/><rect class="cls-1" x="497.879" y="137.206" width="2.417" height="2.417"/><rect class="cls-1" x="497.879" y="140.832" width="2.417" height="2.417"/><rect class="cls-1" x="497.879" y="144.458" width="2.417" height="2.417"/><rect class="cls-1" x="497.879" y="148.084" width="2.417" height="2.417"/><rect class="cls-1" x="497.879" y="151.71" width="2.417" height="2.417"/><rect class="cls-1" x="497.879" y="155.335" width="2.417" height="2.417"/><rect class="cls-1" x="497.879" y="158.961" width="2.417" height="2.417"/><rect class="cls-1" x="497.879" y="162.587" width="2.417" height="2.417"/><rect class="cls-1" x="494.253" y="162.587" width="2.417" height="2.417"/><rect class="cls-3" x="464.038" y="128.746" width="41.092" height="41.092"/><rect class="cls-4" x="464.038" y="144.458" width="2.417" height="9.669"/><rect class="cls-4" x="502.713" y="144.458" width="2.417" height="9.669"/><rect class="cls-4" x="483.376" y="125.12" width="2.417" height="9.669" transform="translate(614.539 -354.63) rotate(90)"/><rect class="cls-4" x="483.376" y="163.795" width="2.417" height="9.669" transform="translate(653.214 -315.955) rotate(90)"/><rect class="cls-1" x="377.188" y="133.581" width="2.417" height="2.417"/><rect class="cls-1" x="380.814" y="133.581" width="2.417" height="2.417"/><rect class="cls-1" x="377.188" y="137.206" width="2.417" height="2.417"/><rect class="cls-1" x="380.814" y="137.206" width="2.417" height="2.417"/><rect class="cls-1" x="377.188" y="140.832" width="2.417" height="2.417"/><rect class="cls-1" x="380.814" y="140.832" width="2.417" height="2.417"/><rect class="cls-1" x="377.188" y="144.458" width="2.417" height="2.417"/><rect class="cls-1" x="377.188" y="148.084" width="2.417" height="2.417"/><rect class="cls-1" x="377.188" y="151.71" width="2.417" height="2.417"/><rect class="cls-1" x="377.188" y="155.335" width="2.417" height="2.417"/><rect class="cls-1" x="380.814" y="155.335" width="2.417" height="2.417"/><rect class="cls-1" x="377.188" y="158.961" width="2.417" height="2.417"/><rect class="cls-1" x="380.814" y="158.961" width="2.417" height="2.417"/><rect class="cls-1" x="377.188" y="162.587" width="2.417" height="2.417"/><rect class="cls-1" x="380.814" y="162.587" width="2.417" height="2.417"/><rect class="cls-1" x="384.44" y="133.581" width="2.417" height="2.417"/><rect class="cls-1" x="388.065" y="133.581" width="2.417" height="2.417"/><rect class="cls-1" x="384.44" y="137.206" width="2.417" height="2.417"/><rect class="cls-1" x="388.065" y="137.206" width="2.417" height="2.417"/><rect class="cls-2" x="384.44" y="140.832" width="2.417" height="2.417"/><rect class="cls-2" x="388.065" y="140.832" width="2.417" height="2.417"/><rect class="cls-2" x="384.44" y="155.335" width="2.417" height="2.417"/><rect class="cls-2" x="388.065" y="155.335" width="2.417" height="2.417"/><rect class="cls-1" x="384.44" y="158.961" width="2.417" height="2.417"/><rect class="cls-1" x="388.065" y="158.961" width="2.417" height="2.417"/><rect class="cls-1" x="384.44" y="162.587" width="2.417" height="2.417"/><rect class="cls-1" x="388.065" y="162.587" width="2.417" height="2.417"/><rect class="cls-1" x="391.691" y="133.581" width="2.417" height="2.417"/><rect class="cls-1" x="395.317" y="133.581" width="2.417" height="2.417"/><rect class="cls-1" x="391.691" y="137.206" width="2.417" height="2.417"/><rect class="cls-1" x="395.317" y="137.206" width="2.417" height="2.417"/><rect class="cls-2" x="391.691" y="140.832" width="2.417" height="2.417"/><rect class="cls-2" x="395.317" y="140.832" width="2.417" height="2.417"/><rect class="cls-2" x="391.691" y="155.335" width="2.417" height="2.417"/><rect class="cls-2" x="395.317" y="155.335" width="2.417" height="2.417"/><rect class="cls-1" x="391.691" y="158.961" width="2.417" height="2.417"/><rect class="cls-1" x="395.317" y="158.961" width="2.417" height="2.417"/><rect class="cls-1" x="391.691" y="162.587" width="2.417" height="2.417"/><rect class="cls-1" x="395.317" y="162.587" width="2.417" height="2.417"/><rect class="cls-1" x="398.943" y="133.581" width="2.417" height="2.417"/><rect class="cls-1" x="402.568" y="133.581" width="2.417" height="2.417"/><rect class="cls-1" x="398.943" y="137.206" width="2.417" height="2.417"/><rect class="cls-1" x="402.568" y="137.206" width="2.417" height="2.417"/><rect class="cls-2" x="398.943" y="140.832" width="2.417" height="2.417"/><rect class="cls-1" x="402.568" y="140.832" width="2.417" height="2.417"/><rect class="cls-1" x="380.814" y="144.458" width="2.417" height="2.417"/><rect class="cls-1" x="380.814" y="148.084" width="2.417" height="2.417"/><rect class="cls-1" x="380.814" y="151.71" width="2.417" height="2.417"/><rect class="cls-2" x="384.44" y="144.458" width="2.417" height="2.417"/><rect class="cls-2" x="388.065" y="144.458" width="2.417" height="2.417"/><rect class="cls-2" x="384.44" y="148.084" width="2.417" height="2.417"/><rect class="cls-2" x="388.065" y="148.084" width="2.417" height="2.417"/><rect class="cls-2" x="384.44" y="151.71" width="2.417" height="2.417"/><rect class="cls-2" x="388.065" y="151.71" width="2.417" height="2.417"/><rect class="cls-2" x="391.691" y="144.458" width="2.417" height="2.417"/><rect class="cls-2" x="395.317" y="144.458" width="2.417" height="2.417"/><rect class="cls-2" x="391.691" y="148.084" width="2.417" height="2.417"/><rect class="cls-2" x="395.317" y="148.084" width="2.417" height="2.417"/><rect class="cls-2" x="391.691" y="151.71" width="2.417" height="2.417"/><rect class="cls-2" x="395.317" y="151.71" width="2.417" height="2.417"/><rect class="cls-2" x="398.943" y="144.458" width="2.417" height="2.417"/><rect class="cls-1" x="402.568" y="144.458" width="2.417" height="2.417"/><rect class="cls-2" x="398.943" y="148.084" width="2.417" height="2.417"/><rect class="cls-1" x="402.568" y="148.084" width="2.417" height="2.417"/><rect class="cls-2" x="398.943" y="151.71" width="2.417" height="2.417"/><rect class="cls-1" x="402.568" y="151.71" width="2.417" height="2.417"/><rect class="cls-2" x="398.943" y="155.335" width="2.417" height="2.417"/><rect class="cls-1" x="402.568" y="155.335" width="2.417" height="2.417"/><rect class="cls-1" x="398.943" y="158.961" width="2.417" height="2.417"/><rect class="cls-1" x="402.568" y="158.961" width="2.417" height="2.417"/><rect class="cls-1" x="398.943" y="162.587" width="2.417" height="2.417"/><rect class="cls-1" x="406.194" y="133.581" width="2.417" height="2.417"/><rect class="cls-1" x="406.194" y="137.206" width="2.417" height="2.417"/><rect class="cls-1" x="406.194" y="140.832" width="2.417" height="2.417"/><rect class="cls-1" x="406.194" y="144.458" width="2.417" height="2.417"/><rect class="cls-1" x="406.194" y="148.084" width="2.417" height="2.417"/><rect class="cls-1" x="406.194" y="151.71" width="2.417" height="2.417"/><rect class="cls-1" x="406.194" y="155.335" width="2.417" height="2.417"/><rect class="cls-1" x="406.194" y="158.961" width="2.417" height="2.417"/><rect class="cls-1" x="406.194" y="162.587" width="2.417" height="2.417"/><rect class="cls-1" x="402.568" y="162.587" width="2.417" height="2.417"/><rect class="cls-3" x="372.354" y="128.746" width="41.092" height="41.092"/><rect class="cls-4" x="372.354" y="144.458" width="2.417" height="9.669"/><rect class="cls-4" x="411.029" y="144.458" width="2.417" height="9.669"/><rect class="cls-4" x="391.691" y="125.12" width="2.417" height="9.669" transform="translate(522.855 -262.945) rotate(90)"/><rect class="cls-4" x="391.691" y="163.795" width="2.417" height="9.669" transform="translate(561.53 -224.27) rotate(90)"/><rect class="cls-1" x="468.873" y="224.404" width="2.417" height="2.417"/><rect class="cls-1" x="472.498" y="224.404" width="2.417" height="2.417"/><rect class="cls-1" x="468.873" y="228.03" width="2.417" height="2.417"/><rect class="cls-1" x="472.498" y="228.03" width="2.417" height="2.417"/><rect class="cls-1" x="468.873" y="231.656" width="2.417" height="2.417"/><rect class="cls-1" x="472.498" y="231.656" width="2.417" height="2.417"/><rect class="cls-1" x="468.873" y="235.281" width="2.417" height="2.417"/><rect class="cls-1" x="468.873" y="238.907" width="2.417" height="2.417"/><rect class="cls-1" x="468.873" y="242.533" width="2.417" height="2.417"/><rect class="cls-1" x="468.873" y="246.159" width="2.417" height="2.417"/><rect class="cls-1" x="472.498" y="246.159" width="2.417" height="2.417"/><rect class="cls-1" x="468.873" y="249.785" width="2.417" height="2.417"/><rect class="cls-1" x="472.498" y="249.785" width="2.417" height="2.417"/><rect class="cls-1" x="468.873" y="253.41" width="2.417" height="2.417"/><rect class="cls-1" x="472.498" y="253.41" width="2.417" height="2.417"/><rect class="cls-1" x="476.124" y="224.404" width="2.417" height="2.417"/><rect class="cls-1" x="479.75" y="224.404" width="2.417" height="2.417"/><rect class="cls-1" x="476.124" y="228.03" width="2.417" height="2.417"/><rect class="cls-1" x="479.75" y="228.03" width="2.417" height="2.417"/><rect class="cls-2" x="476.124" y="231.656" width="2.417" height="2.417"/><rect class="cls-2" x="479.75" y="231.656" width="2.417" height="2.417"/><rect class="cls-2" x="476.124" y="246.159" width="2.417" height="2.417"/><rect class="cls-2" x="479.75" y="246.159" width="2.417" height="2.417"/><rect class="cls-1" x="476.124" y="249.785" width="2.417" height="2.417"/><rect class="cls-1" x="479.75" y="249.785" width="2.417" height="2.417"/><rect class="cls-1" x="476.124" y="253.41" width="2.417" height="2.417"/><rect class="cls-1" x="479.75" y="253.41" width="2.417" height="2.417"/><rect class="cls-1" x="483.376" y="224.404" width="2.417" height="2.417"/><rect class="cls-1" x="487.002" y="224.404" width="2.417" height="2.417"/><rect class="cls-1" x="483.376" y="228.03" width="2.417" height="2.417"/><rect class="cls-1" x="487.002" y="228.03" width="2.417" height="2.417"/><rect class="cls-2" x="483.376" y="231.656" width="2.417" height="2.417"/><rect class="cls-2" x="487.002" y="231.656" width="2.417" height="2.417"/><rect class="cls-2" x="483.376" y="246.159" width="2.417" height="2.417"/><rect class="cls-2" x="487.002" y="246.159" width="2.417" height="2.417"/><rect class="cls-1" x="483.376" y="249.785" width="2.417" height="2.417"/><rect class="cls-1" x="487.002" y="249.785" width="2.417" height="2.417"/><rect class="cls-1" x="483.376" y="253.41" width="2.417" height="2.417"/><rect class="cls-1" x="487.002" y="253.41" width="2.417" height="2.417"/><rect class="cls-1" x="490.627" y="224.404" width="2.417" height="2.417"/><rect class="cls-1" x="494.253" y="224.404" width="2.417" height="2.417"/><rect class="cls-1" x="490.627" y="228.03" width="2.417" height="2.417"/><rect class="cls-1" x="494.253" y="228.03" width="2.417" height="2.417"/><rect class="cls-2" x="490.627" y="231.656" width="2.417" height="2.417"/><rect class="cls-1" x="494.253" y="231.656" width="2.417" height="2.417"/><rect class="cls-1" x="472.498" y="235.281" width="2.417" height="2.417"/><rect class="cls-1" x="472.498" y="238.907" width="2.417" height="2.417"/><rect class="cls-1" x="472.498" y="242.533" width="2.417" height="2.417"/><rect class="cls-2" x="476.124" y="235.281" width="2.417" height="2.417"/><rect class="cls-2" x="479.75" y="235.281" width="2.417" height="2.417"/><rect class="cls-2" x="476.124" y="238.907" width="2.417" height="2.417"/><rect class="cls-2" x="479.75" y="238.907" width="2.417" height="2.417"/><rect class="cls-2" x="476.124" y="242.533" width="2.417" height="2.417"/><rect class="cls-2" x="479.75" y="242.533" width="2.417" height="2.417"/><rect class="cls-2" x="483.376" y="235.281" width="2.417" height="2.417"/><rect class="cls-2" x="487.002" y="235.281" width="2.417" height="2.417"/><rect class="cls-2" x="483.376" y="238.907" width="2.417" height="2.417"/><rect class="cls-2" x="487.002" y="238.907" width="2.417" height="2.417"/><rect class="cls-2" x="483.376" y="242.533" width="2.417" height="2.417"/><rect class="cls-2" x="487.002" y="242.533" width="2.417" height="2.417"/><rect class="cls-2" x="490.627" y="235.281" width="2.417" height="2.417"/><rect class="cls-1" x="494.253" y="235.281" width="2.417" height="2.417"/><rect class="cls-2" x="490.627" y="238.907" width="2.417" height="2.417"/><rect class="cls-1" x="494.253" y="238.907" width="2.417" height="2.417"/><rect class="cls-2" x="490.627" y="242.533" width="2.417" height="2.417"/><rect class="cls-1" x="494.253" y="242.533" width="2.417" height="2.417"/><rect class="cls-2" x="490.627" y="246.159" width="2.417" height="2.417"/><rect class="cls-1" x="494.253" y="246.159" width="2.417" height="2.417"/><rect class="cls-1" x="490.627" y="249.785" width="2.417" height="2.417"/><rect class="cls-1" x="494.253" y="249.785" width="2.417" height="2.417"/><rect class="cls-1" x="490.627" y="253.41" width="2.417" height="2.417"/><rect class="cls-1" x="497.879" y="224.404" width="2.417" height="2.417"/><rect class="cls-1" x="497.879" y="228.03" width="2.417" height="2.417"/><rect class="cls-1" x="497.879" y="231.656" width="2.417" height="2.417"/><rect class="cls-1" x="497.879" y="235.281" width="2.417" height="2.417"/><rect class="cls-1" x="497.879" y="238.907" width="2.417" height="2.417"/><rect class="cls-1" x="497.879" y="242.533" width="2.417" height="2.417"/><rect class="cls-1" x="497.879" y="246.159" width="2.417" height="2.417"/><rect class="cls-1" x="497.879" y="249.785" width="2.417" height="2.417"/><rect class="cls-1" x="497.879" y="253.41" width="2.417" height="2.417"/><rect class="cls-1" x="494.253" y="253.41" width="2.417" height="2.417"/><rect class="cls-3" x="464.038" y="219.57" width="41.092" height="41.092"/><rect class="cls-4" x="464.038" y="235.281" width="2.417" height="9.669"/><rect class="cls-4" x="502.713" y="235.281" width="2.417" height="9.669"/><rect class="cls-4" x="483.376" y="215.944" width="2.417" height="9.669" transform="translate(705.363 -263.806) rotate(90)"/><rect class="cls-4" x="483.376" y="254.619" width="2.417" height="9.669" transform="translate(744.038 -225.131) rotate(90)"/><rect class="cls-1" x="377.188" y="224.404" width="2.417" height="2.417"/><rect class="cls-1" x="380.814" y="224.404" width="2.417" height="2.417"/><rect class="cls-1" x="377.188" y="228.03" width="2.417" height="2.417"/><rect class="cls-1" x="380.814" y="228.03" width="2.417" height="2.417"/><rect class="cls-1" x="377.188" y="231.656" width="2.417" height="2.417"/><rect class="cls-1" x="380.814" y="231.656" width="2.417" height="2.417"/><rect class="cls-1" x="377.188" y="235.281" width="2.417" height="2.417"/><rect class="cls-1" x="377.188" y="238.907" width="2.417" height="2.417"/><rect class="cls-1" x="377.188" y="242.533" width="2.417" height="2.417"/><rect class="cls-1" x="377.188" y="246.159" width="2.417" height="2.417"/><rect class="cls-1" x="380.814" y="246.159" width="2.417" height="2.417"/><rect class="cls-1" x="377.188" y="249.785" width="2.417" height="2.417"/><rect class="cls-1" x="380.814" y="249.785" width="2.417" height="2.417"/><rect class="cls-1" x="377.188" y="253.41" width="2.417" height="2.417"/><rect class="cls-1" x="380.814" y="253.41" width="2.417" height="2.417"/><rect class="cls-1" x="384.44" y="224.404" width="2.417" height="2.417"/><rect class="cls-1" x="388.065" y="224.404" width="2.417" height="2.417"/><rect class="cls-1" x="384.44" y="228.03" width="2.417" height="2.417"/><rect class="cls-1" x="388.065" y="228.03" width="2.417" height="2.417"/><rect class="cls-2" x="384.44" y="231.656" width="2.417" height="2.417"/><rect class="cls-2" x="388.065" y="231.656" width="2.417" height="2.417"/><rect class="cls-2" x="384.44" y="246.159" width="2.417" height="2.417"/><rect class="cls-2" x="388.065" y="246.159" width="2.417" height="2.417"/><rect class="cls-1" x="384.44" y="249.785" width="2.417" height="2.417"/><rect class="cls-1" x="388.065" y="249.785" width="2.417" height="2.417"/><rect class="cls-1" x="384.44" y="253.41" width="2.417" height="2.417"/><rect class="cls-1" x="388.065" y="253.41" width="2.417" height="2.417"/><rect class="cls-1" x="391.691" y="224.404" width="2.417" height="2.417"/><rect class="cls-1" x="395.317" y="224.404" width="2.417" height="2.417"/><rect class="cls-1" x="391.691" y="228.03" width="2.417" height="2.417"/><rect class="cls-1" x="395.317" y="228.03" width="2.417" height="2.417"/><rect class="cls-2" x="391.691" y="231.656" width="2.417" height="2.417"/><rect class="cls-2" x="395.317" y="231.656" width="2.417" height="2.417"/><rect class="cls-2" x="391.691" y="246.159" width="2.417" height="2.417"/><rect class="cls-2" x="395.317" y="246.159" width="2.417" height="2.417"/><rect class="cls-1" x="391.691" y="249.785" width="2.417" height="2.417"/><rect class="cls-1" x="395.317" y="249.785" width="2.417" height="2.417"/><rect class="cls-1" x="391.691" y="253.41" width="2.417" height="2.417"/><rect class="cls-1" x="395.317" y="253.41" width="2.417" height="2.417"/><rect class="cls-1" x="398.943" y="224.404" width="2.417" height="2.417"/><rect class="cls-1" x="402.568" y="224.404" width="2.417" height="2.417"/><rect class="cls-1" x="398.943" y="228.03" width="2.417" height="2.417"/><rect class="cls-1" x="402.568" y="228.03" width="2.417" height="2.417"/><rect class="cls-2" x="398.943" y="231.656" width="2.417" height="2.417"/><rect class="cls-1" x="402.568" y="231.656" width="2.417" height="2.417"/><rect class="cls-1" x="380.814" y="235.281" width="2.417" height="2.417"/><rect class="cls-1" x="380.814" y="238.907" width="2.417" height="2.417"/><rect class="cls-1" x="380.814" y="242.533" width="2.417" height="2.417"/><rect class="cls-2" x="384.44" y="235.281" width="2.417" height="2.417"/><rect class="cls-2" x="388.065" y="235.281" width="2.417" height="2.417"/><rect class="cls-2" x="384.44" y="238.907" width="2.417" height="2.417"/><rect class="cls-2" x="388.065" y="238.907" width="2.417" height="2.417"/><rect class="cls-2" x="384.44" y="242.533" width="2.417" height="2.417"/><rect class="cls-2" x="388.065" y="242.533" width="2.417" height="2.417"/><rect class="cls-2" x="391.691" y="235.281" width="2.417" height="2.417"/><rect class="cls-2" x="395.317" y="235.281" width="2.417" height="2.417"/><rect class="cls-2" x="391.691" y="238.907" width="2.417" height="2.417"/><rect class="cls-2" x="395.317" y="238.907" width="2.417" height="2.417"/><rect class="cls-2" x="391.691" y="242.533" width="2.417" height="2.417"/><rect class="cls-2" x="395.317" y="242.533" width="2.417" height="2.417"/><rect class="cls-2" x="398.943" y="235.281" width="2.417" height="2.417"/><rect class="cls-1" x="402.568" y="235.281" width="2.417" height="2.417"/><rect class="cls-2" x="398.943" y="238.907" width="2.417" height="2.417"/><rect class="cls-1" x="402.568" y="238.907" width="2.417" height="2.417"/><rect class="cls-2" x="398.943" y="242.533" width="2.417" height="2.417"/><rect class="cls-1" x="402.568" y="242.533" width="2.417" height="2.417"/><rect class="cls-2" x="398.943" y="246.159" width="2.417" height="2.417"/><rect class="cls-1" x="402.568" y="246.159" width="2.417" height="2.417"/><rect class="cls-1" x="398.943" y="249.785" width="2.417" height="2.417"/><rect class="cls-1" x="402.568" y="249.785" width="2.417" height="2.417"/><rect class="cls-1" x="398.943" y="253.41" width="2.417" height="2.417"/><rect class="cls-1" x="406.194" y="224.404" width="2.417" height="2.417"/><rect class="cls-1" x="406.194" y="228.03" width="2.417" height="2.417"/><rect class="cls-1" x="406.194" y="231.656" width="2.417" height="2.417"/><rect class="cls-1" x="406.194" y="235.281" width="2.417" height="2.417"/><rect class="cls-1" x="406.194" y="238.907" width="2.417" height="2.417"/><rect class="cls-1" x="406.194" y="242.533" width="2.417" height="2.417"/><rect class="cls-1" x="406.194" y="246.159" width="2.417" height="2.417"/><rect class="cls-1" x="406.194" y="249.785" width="2.417" height="2.417"/><rect class="cls-1" x="406.194" y="253.41" width="2.417" height="2.417"/><rect class="cls-1" x="402.568" y="253.41" width="2.417" height="2.417"/><rect class="cls-3" x="372.354" y="219.57" width="41.092" height="41.092"/><rect class="cls-4" x="372.354" y="235.281" width="2.417" height="9.669"/><rect class="cls-4" x="411.029" y="235.281" width="2.417" height="9.669"/><rect class="cls-4" x="391.691" y="215.944" width="2.417" height="9.669" transform="translate(613.678 -172.121) rotate(90)"/><rect class="cls-4" x="391.691" y="254.619" width="2.417" height="9.669" transform="translate(652.353 -133.446) rotate(90)"/><rect class="cls-5" x="425.141" y="32.244" width="26.589" height="26.589" transform="translate(876.871 91.077) rotate(-180)"/><rect class="cls-6" x="437.227" y="52.79" width="2.417" height="9.669" transform="translate(496.06 -380.811) rotate(90)"/><rect class="cls-6" x="425.141" y="40.704" width="2.417" height="9.669" transform="translate(852.699 91.077) rotate(-180)"/><rect class="cls-6" x="437.227" y="28.618" width="2.417" height="9.669" transform="translate(404.983 471.888) rotate(-90)"/><rect class="cls-6" x="449.313" y="40.704" width="2.417" height="9.669"/><rect class="cls-6" x="439.644" y="37.078" width="7.252" height="7.252" transform="translate(886.539 81.408) rotate(-180)"/><rect class="cls-6" x="429.975" y="37.078" width="7.252" height="7.252" transform="translate(867.202 81.408) rotate(-180)"/><rect class="cls-6" x="439.644" y="46.747" width="7.252" height="7.252" transform="translate(886.539 100.746) rotate(-180)"/><rect class="cls-6" x="429.975" y="46.747" width="7.252" height="7.252" transform="translate(867.202 100.746) rotate(-180)"/><rect class="cls-1" x="222.044" y="133.581" width="2.417" height="2.417"/><rect class="cls-1" x="225.67" y="133.581" width="2.417" height="2.417"/><rect class="cls-1" x="222.044" y="137.206" width="2.417" height="2.417"/><rect class="cls-1" x="225.67" y="137.206" width="2.417" height="2.417"/><rect class="cls-1" x="222.044" y="140.832" width="2.417" height="2.417"/><rect class="cls-1" x="225.67" y="140.832" width="2.417" height="2.417"/><rect class="cls-1" x="222.044" y="144.458" width="2.417" height="2.417"/><rect class="cls-1" x="222.044" y="148.084" width="2.417" height="2.417"/><rect class="cls-1" x="222.044" y="151.71" width="2.417" height="2.417"/><rect class="cls-1" x="222.044" y="155.335" width="2.417" height="2.417"/><rect class="cls-1" x="225.67" y="155.335" width="2.417" height="2.417"/><rect class="cls-1" x="222.044" y="158.961" width="2.417" height="2.417"/><rect class="cls-1" x="225.67" y="158.961" width="2.417" height="2.417"/><rect class="cls-1" x="222.044" y="162.587" width="2.417" height="2.417"/><rect class="cls-1" x="225.67" y="162.587" width="2.417" height="2.417"/><rect class="cls-1" x="229.296" y="133.581" width="2.417" height="2.417"/><rect class="cls-1" x="232.921" y="133.581" width="2.417" height="2.417"/><rect class="cls-1" x="229.296" y="137.206" width="2.417" height="2.417"/><rect class="cls-1" x="232.921" y="137.206" width="2.417" height="2.417"/><rect class="cls-2" x="229.296" y="140.832" width="2.417" height="2.417"/><rect class="cls-2" x="232.921" y="140.832" width="2.417" height="2.417"/><rect class="cls-2" x="229.296" y="155.335" width="2.417" height="2.417"/><rect class="cls-2" x="232.921" y="155.335" width="2.417" height="2.417"/><rect class="cls-1" x="229.296" y="158.961" width="2.417" height="2.417"/><rect class="cls-1" x="232.921" y="158.961" width="2.417" height="2.417"/><rect class="cls-1" x="229.296" y="162.587" width="2.417" height="2.417"/><rect class="cls-1" x="232.921" y="162.587" width="2.417" height="2.417"/><rect class="cls-1" x="236.547" y="133.581" width="2.417" height="2.417"/><rect class="cls-1" x="240.173" y="133.581" width="2.417" height="2.417"/><rect class="cls-1" x="236.547" y="137.206" width="2.417" height="2.417"/><rect class="cls-1" x="240.173" y="137.206" width="2.417" height="2.417"/><rect class="cls-2" x="236.547" y="140.832" width="2.417" height="2.417"/><rect class="cls-2" x="240.173" y="140.832" width="2.417" height="2.417"/><rect class="cls-2" x="236.547" y="155.335" width="2.417" height="2.417"/><rect class="cls-2" x="240.173" y="155.335" width="2.417" height="2.417"/><rect class="cls-1" x="236.547" y="158.961" width="2.417" height="2.417"/><rect class="cls-1" x="240.173" y="158.961" width="2.417" height="2.417"/><rect class="cls-1" x="236.547" y="162.587" width="2.417" height="2.417"/><rect class="cls-1" x="240.173" y="162.587" width="2.417" height="2.417"/><rect class="cls-1" x="243.799" y="133.581" width="2.417" height="2.417"/><rect class="cls-1" x="247.424" y="133.581" width="2.417" height="2.417"/><rect class="cls-1" x="243.799" y="137.206" width="2.417" height="2.417"/><rect class="cls-1" x="247.424" y="137.206" width="2.417" height="2.417"/><rect class="cls-2" x="243.799" y="140.832" width="2.417" height="2.417"/><rect class="cls-1" x="247.424" y="140.832" width="2.417" height="2.417"/><rect class="cls-1" x="225.67" y="144.458" width="2.417" height="2.417"/><rect class="cls-1" x="225.67" y="148.084" width="2.417" height="2.417"/><rect class="cls-1" x="225.67" y="151.71" width="2.417" height="2.417"/><rect class="cls-2" x="229.296" y="144.458" width="2.417" height="2.417"/><rect class="cls-2" x="232.921" y="144.458" width="2.417" height="2.417"/><rect class="cls-2" x="229.296" y="148.084" width="2.417" height="2.417"/><rect class="cls-2" x="232.921" y="148.084" width="2.417" height="2.417"/><rect class="cls-2" x="229.296" y="151.71" width="2.417" height="2.417"/><rect class="cls-2" x="232.921" y="151.71" width="2.417" height="2.417"/><rect class="cls-2" x="236.547" y="144.458" width="2.417" height="2.417"/><rect class="cls-2" x="240.173" y="144.458" width="2.417" height="2.417"/><rect class="cls-2" x="236.547" y="148.084" width="2.417" height="2.417"/><rect class="cls-2" x="240.173" y="148.084" width="2.417" height="2.417"/><rect class="cls-2" x="236.547" y="151.71" width="2.417" height="2.417"/><rect class="cls-2" x="240.173" y="151.71" width="2.417" height="2.417"/><rect class="cls-2" x="243.799" y="144.458" width="2.417" height="2.417"/><rect class="cls-1" x="247.424" y="144.458" width="2.417" height="2.417"/><rect class="cls-2" x="243.799" y="148.084" width="2.417" height="2.417"/><rect class="cls-1" x="247.424" y="148.084" width="2.417" height="2.417"/><rect class="cls-2" x="243.799" y="151.71" width="2.417" height="2.417"/><rect class="cls-1" x="247.424" y="151.71" width="2.417" height="2.417"/><rect class="cls-2" x="243.799" y="155.335" width="2.417" height="2.417"/><rect class="cls-1" x="247.424" y="155.335" width="2.417" height="2.417"/><rect class="cls-1" x="243.799" y="158.961" width="2.417" height="2.417"/><rect class="cls-1" x="247.424" y="158.961" width="2.417" height="2.417"/><rect class="cls-1" x="243.799" y="162.587" width="2.417" height="2.417"/><rect class="cls-1" x="251.05" y="133.581" width="2.417" height="2.417"/><rect class="cls-1" x="251.05" y="137.206" width="2.417" height="2.417"/><rect class="cls-1" x="251.05" y="140.832" width="2.417" height="2.417"/><rect class="cls-1" x="251.05" y="144.458" width="2.417" height="2.417"/><rect class="cls-1" x="251.05" y="148.084" width="2.417" height="2.417"/><rect class="cls-1" x="251.05" y="151.71" width="2.417" height="2.417"/><rect class="cls-1" x="251.05" y="155.335" width="2.417" height="2.417"/><rect class="cls-1" x="251.05" y="158.961" width="2.417" height="2.417"/><rect class="cls-1" x="251.05" y="162.587" width="2.417" height="2.417"/><rect class="cls-1" x="247.424" y="162.587" width="2.417" height="2.417"/><rect class="cls-3" x="217.21" y="128.746" width="41.092" height="41.092"/><rect class="cls-4" x="217.21" y="144.458" width="2.417" height="9.669"/><rect class="cls-4" x="255.885" y="144.458" width="2.417" height="9.669"/><rect class="cls-4" x="236.547" y="125.12" width="2.417" height="9.669" transform="translate(367.711 -107.801) rotate(90)"/><rect class="cls-4" x="236.547" y="163.795" width="2.417" height="9.669" transform="translate(406.386 -69.126) rotate(90)"/><rect class="cls-1" x="130.359" y="133.581" width="2.417" height="2.417"/><rect class="cls-1" x="133.985" y="133.581" width="2.417" height="2.417"/><rect class="cls-1" x="130.359" y="137.206" width="2.417" height="2.417"/><rect class="cls-1" x="133.985" y="137.206" width="2.417" height="2.417"/><rect class="cls-1" x="130.359" y="140.832" width="2.417" height="2.417"/><rect class="cls-1" x="133.985" y="140.832" width="2.417" height="2.417"/><rect class="cls-1" x="130.359" y="144.458" width="2.417" height="2.417"/><rect class="cls-1" x="130.359" y="148.084" width="2.417" height="2.417"/><rect class="cls-1" x="130.359" y="151.71" width="2.417" height="2.417"/><rect class="cls-1" x="130.359" y="155.335" width="2.417" height="2.417"/><rect class="cls-1" x="133.985" y="155.335" width="2.417" height="2.417"/><rect class="cls-1" x="130.359" y="158.961" width="2.417" height="2.417"/><rect class="cls-1" x="133.985" y="158.961" width="2.417" height="2.417"/><rect class="cls-1" x="130.359" y="162.587" width="2.417" height="2.417"/><rect class="cls-1" x="133.985" y="162.587" width="2.417" height="2.417"/><rect class="cls-1" x="137.611" y="133.581" width="2.417" height="2.417"/><rect class="cls-1" x="141.237" y="133.581" width="2.417" height="2.417"/><rect class="cls-1" x="137.611" y="137.206" width="2.417" height="2.417"/><rect class="cls-1" x="141.237" y="137.206" width="2.417" height="2.417"/><rect class="cls-2" x="137.611" y="140.832" width="2.417" height="2.417"/><rect class="cls-2" x="141.237" y="140.832" width="2.417" height="2.417"/><rect class="cls-2" x="137.611" y="155.335" width="2.417" height="2.417"/><rect class="cls-2" x="141.237" y="155.335" width="2.417" height="2.417"/><rect class="cls-1" x="137.611" y="158.961" width="2.417" height="2.417"/><rect class="cls-1" x="141.237" y="158.961" width="2.417" height="2.417"/><rect class="cls-1" x="137.611" y="162.587" width="2.417" height="2.417"/><rect class="cls-1" x="141.237" y="162.587" width="2.417" height="2.417"/><rect class="cls-1" x="144.862" y="133.581" width="2.417" height="2.417"/><rect class="cls-1" x="148.488" y="133.581" width="2.417" height="2.417"/><rect class="cls-1" x="144.862" y="137.206" width="2.417" height="2.417"/><rect class="cls-1" x="148.488" y="137.206" width="2.417" height="2.417"/><rect class="cls-2" x="144.862" y="140.832" width="2.417" height="2.417"/><rect class="cls-2" x="148.488" y="140.832" width="2.417" height="2.417"/><rect class="cls-2" x="144.862" y="155.335" width="2.417" height="2.417"/><rect class="cls-2" x="148.488" y="155.335" width="2.417" height="2.417"/><rect class="cls-1" x="144.862" y="158.961" width="2.417" height="2.417"/><rect class="cls-1" x="148.488" y="158.961" width="2.417" height="2.417"/><rect class="cls-1" x="144.862" y="162.587" width="2.417" height="2.417"/><rect class="cls-1" x="148.488" y="162.587" width="2.417" height="2.417"/><rect class="cls-1" x="152.114" y="133.581" width="2.417" height="2.417"/><rect class="cls-1" x="155.74" y="133.581" width="2.417" height="2.417"/><rect class="cls-1" x="152.114" y="137.206" width="2.417" height="2.417"/><rect class="cls-1" x="155.74" y="137.206" width="2.417" height="2.417"/><rect class="cls-2" x="152.114" y="140.832" width="2.417" height="2.417"/><rect class="cls-1" x="155.74" y="140.832" width="2.417" height="2.417"/><rect class="cls-1" x="133.985" y="144.458" width="2.417" height="2.417"/><rect class="cls-1" x="133.985" y="148.084" width="2.417" height="2.417"/><rect class="cls-1" x="133.985" y="151.71" width="2.417" height="2.417"/><rect class="cls-2" x="137.611" y="144.458" width="2.417" height="2.417"/><rect class="cls-2" x="141.237" y="144.458" width="2.417" height="2.417"/><rect class="cls-2" x="137.611" y="148.084" width="2.417" height="2.417"/><rect class="cls-2" x="141.237" y="148.084" width="2.417" height="2.417"/><rect class="cls-2" x="137.611" y="151.71" width="2.417" height="2.417"/><rect class="cls-2" x="141.237" y="151.71" width="2.417" height="2.417"/><rect class="cls-2" x="144.862" y="144.458" width="2.417" height="2.417"/><rect class="cls-2" x="148.488" y="144.458" width="2.417" height="2.417"/><rect class="cls-2" x="144.862" y="148.084" width="2.417" height="2.417"/><rect class="cls-2" x="148.488" y="148.084" width="2.417" height="2.417"/><rect class="cls-2" x="144.862" y="151.71" width="2.417" height="2.417"/><rect class="cls-2" x="148.488" y="151.71" width="2.417" height="2.417"/><rect class="cls-2" x="152.114" y="144.458" width="2.417" height="2.417"/><rect class="cls-1" x="155.74" y="144.458" width="2.417" height="2.417"/><rect class="cls-2" x="152.114" y="148.084" width="2.417" height="2.417"/><rect class="cls-1" x="155.74" y="148.084" width="2.417" height="2.417"/><rect class="cls-2" x="152.114" y="151.71" width="2.417" height="2.417"/><rect class="cls-1" x="155.74" y="151.71" width="2.417" height="2.417"/><rect class="cls-2" x="152.114" y="155.335" width="2.417" height="2.417"/><rect class="cls-1" x="155.74" y="155.335" width="2.417" height="2.417"/><rect class="cls-1" x="152.114" y="158.961" width="2.417" height="2.417"/><rect class="cls-1" x="155.74" y="158.961" width="2.417" height="2.417"/><rect class="cls-1" x="152.114" y="162.587" width="2.417" height="2.417"/><rect class="cls-1" x="159.365" y="133.581" width="2.417" height="2.417"/><rect class="cls-1" x="159.365" y="137.206" width="2.417" height="2.417"/><rect class="cls-1" x="159.365" y="140.832" width="2.417" height="2.417"/><rect class="cls-1" x="159.365" y="144.458" width="2.417" height="2.417"/><rect class="cls-1" x="159.365" y="148.084" width="2.417" height="2.417"/><rect class="cls-1" x="159.365" y="151.71" width="2.417" height="2.417"/><rect class="cls-1" x="159.365" y="155.335" width="2.417" height="2.417"/><rect class="cls-1" x="159.365" y="158.961" width="2.417" height="2.417"/><rect class="cls-1" x="159.365" y="162.587" width="2.417" height="2.417"/><rect class="cls-1" x="155.74" y="162.587" width="2.417" height="2.417"/><rect class="cls-3" x="125.525" y="128.746" width="41.092" height="41.092"/><rect class="cls-4" x="125.525" y="144.458" width="2.417" height="9.669"/><rect class="cls-4" x="164.2" y="144.458" width="2.417" height="9.669"/><rect class="cls-4" x="144.862" y="125.12" width="2.417" height="9.669" transform="translate(276.026 -16.116) rotate(90)"/><rect class="cls-4" x="144.862" y="163.795" width="2.417" height="9.669" transform="translate(314.701 22.559) rotate(90)"/><rect class="cls-1" x="222.044" y="224.404" width="2.417" height="2.417"/><rect class="cls-1" x="225.67" y="224.404" width="2.417" height="2.417"/><rect class="cls-1" x="222.044" y="228.03" width="2.417" height="2.417"/><rect class="cls-1" x="225.67" y="228.03" width="2.417" height="2.417"/><rect class="cls-1" x="222.044" y="231.656" width="2.417" height="2.417"/><rect class="cls-1" x="225.67" y="231.656" width="2.417" height="2.417"/><rect class="cls-1" x="222.044" y="235.281" width="2.417" height="2.417"/><rect class="cls-1" x="222.044" y="238.907" width="2.417" height="2.417"/><rect class="cls-1" x="222.044" y="242.533" width="2.417" height="2.417"/><rect class="cls-1" x="222.044" y="246.159" width="2.417" height="2.417"/><rect class="cls-1" x="225.67" y="246.159" width="2.417" height="2.417"/><rect class="cls-1" x="222.044" y="249.785" width="2.417" height="2.417"/><rect class="cls-1" x="225.67" y="249.785" width="2.417" height="2.417"/><rect class="cls-1" x="222.044" y="253.41" width="2.417" height="2.417"/><rect class="cls-1" x="225.67" y="253.41" width="2.417" height="2.417"/><rect class="cls-1" x="229.296" y="224.404" width="2.417" height="2.417"/><rect class="cls-1" x="232.921" y="224.404" width="2.417" height="2.417"/><rect class="cls-1" x="229.296" y="228.03" width="2.417" height="2.417"/><rect class="cls-1" x="232.921" y="228.03" width="2.417" height="2.417"/><rect class="cls-2" x="229.296" y="231.656" width="2.417" height="2.417"/><rect class="cls-2" x="232.921" y="231.656" width="2.417" height="2.417"/><rect class="cls-2" x="229.296" y="246.159" width="2.417" height="2.417"/><rect class="cls-2" x="232.921" y="246.159" width="2.417" height="2.417"/><rect class="cls-1" x="229.296" y="249.785" width="2.417" height="2.417"/><rect class="cls-1" x="232.921" y="249.785" width="2.417" height="2.417"/><rect class="cls-1" x="229.296" y="253.41" width="2.417" height="2.417"/><rect class="cls-1" x="232.921" y="253.41" width="2.417" height="2.417"/><rect class="cls-1" x="236.547" y="224.404" width="2.417" height="2.417"/><rect class="cls-1" x="240.173" y="224.404" width="2.417" height="2.417"/><rect class="cls-1" x="236.547" y="228.03" width="2.417" height="2.417"/><rect class="cls-1" x="240.173" y="228.03" width="2.417" height="2.417"/><rect class="cls-2" x="236.547" y="231.656" width="2.417" height="2.417"/><rect class="cls-2" x="240.173" y="231.656" width="2.417" height="2.417"/><rect class="cls-2" x="236.547" y="246.159" width="2.417" height="2.417"/><rect class="cls-2" x="240.173" y="246.159" width="2.417" height="2.417"/><rect class="cls-1" x="236.547" y="249.785" width="2.417" height="2.417"/><rect class="cls-1" x="240.173" y="249.785" width="2.417" height="2.417"/><rect class="cls-1" x="236.547" y="253.41" width="2.417" height="2.417"/><rect class="cls-1" x="240.173" y="253.41" width="2.417" height="2.417"/><rect class="cls-1" x="243.799" y="224.404" width="2.417" height="2.417"/><rect class="cls-1" x="247.424" y="224.404" width="2.417" height="2.417"/><rect class="cls-1" x="243.799" y="228.03" width="2.417" height="2.417"/><rect class="cls-1" x="247.424" y="228.03" width="2.417" height="2.417"/><rect class="cls-2" x="243.799" y="231.656" width="2.417" height="2.417"/><rect class="cls-1" x="247.424" y="231.656" width="2.417" height="2.417"/><rect class="cls-1" x="225.67" y="235.281" width="2.417" height="2.417"/><rect class="cls-1" x="225.67" y="238.907" width="2.417" height="2.417"/><rect class="cls-1" x="225.67" y="242.533" width="2.417" height="2.417"/><rect class="cls-2" x="229.296" y="235.281" width="2.417" height="2.417"/><rect class="cls-2" x="232.921" y="235.281" width="2.417" height="2.417"/><rect class="cls-2" x="229.296" y="238.907" width="2.417" height="2.417"/><rect class="cls-2" x="232.921" y="238.907" width="2.417" height="2.417"/><rect class="cls-2" x="229.296" y="242.533" width="2.417" height="2.417"/><rect class="cls-2" x="232.921" y="242.533" width="2.417" height="2.417"/><rect class="cls-2" x="236.547" y="235.281" width="2.417" height="2.417"/><rect class="cls-2" x="240.173" y="235.281" width="2.417" height="2.417"/><rect class="cls-2" x="236.547" y="238.907" width="2.417" height="2.417"/><rect class="cls-2" x="240.173" y="238.907" width="2.417" height="2.417"/><rect class="cls-2" x="236.547" y="242.533" width="2.417" height="2.417"/><rect class="cls-2" x="240.173" y="242.533" width="2.417" height="2.417"/><rect class="cls-2" x="243.799" y="235.281" width="2.417" height="2.417"/><rect class="cls-1" x="247.424" y="235.281" width="2.417" height="2.417"/><rect class="cls-2" x="243.799" y="238.907" width="2.417" height="2.417"/><rect class="cls-1" x="247.424" y="238.907" width="2.417" height="2.417"/><rect class="cls-2" x="243.799" y="242.533" width="2.417" height="2.417"/><rect class="cls-1" x="247.424" y="242.533" width="2.417" height="2.417"/><rect class="cls-2" x="243.799" y="246.159" width="2.417" height="2.417"/><rect class="cls-1" x="247.424" y="246.159" width="2.417" height="2.417"/><rect class="cls-1" x="243.799" y="249.785" width="2.417" height="2.417"/><rect class="cls-1" x="247.424" y="249.785" width="2.417" height="2.417"/><rect class="cls-1" x="243.799" y="253.41" width="2.417" height="2.417"/><rect class="cls-1" x="251.05" y="224.404" width="2.417" height="2.417"/><rect class="cls-1" x="251.05" y="228.03" width="2.417" height="2.417"/><rect class="cls-1" x="251.05" y="231.656" width="2.417" height="2.417"/><rect class="cls-1" x="251.05" y="235.281" width="2.417" height="2.417"/><rect class="cls-1" x="251.05" y="238.907" width="2.417" height="2.417"/><rect class="cls-1" x="251.05" y="242.533" width="2.417" height="2.417"/><rect class="cls-1" x="251.05" y="246.159" width="2.417" height="2.417"/><rect class="cls-1" x="251.05" y="249.785" width="2.417" height="2.417"/><rect class="cls-1" x="251.05" y="253.41" width="2.417" height="2.417"/><rect class="cls-1" x="247.424" y="253.41" width="2.417" height="2.417"/><rect class="cls-3" x="217.21" y="219.57" width="41.092" height="41.092"/><rect class="cls-4" x="217.21" y="235.281" width="2.417" height="9.669"/><rect class="cls-4" x="255.885" y="235.281" width="2.417" height="9.669"/><rect class="cls-4" x="236.547" y="215.944" width="2.417" height="9.669" transform="translate(458.534 -16.977) rotate(90)"/><rect class="cls-4" x="236.547" y="254.619" width="2.417" height="9.669" transform="translate(497.209 21.698) rotate(90)"/><rect class="cls-1" x="130.359" y="224.404" width="2.417" height="2.417"/><rect class="cls-1" x="133.985" y="224.404" width="2.417" height="2.417"/><rect class="cls-1" x="130.359" y="228.03" width="2.417" height="2.417"/><rect class="cls-1" x="133.985" y="228.03" width="2.417" height="2.417"/><rect class="cls-1" x="130.359" y="231.656" width="2.417" height="2.417"/><rect class="cls-1" x="133.985" y="231.656" width="2.417" height="2.417"/><rect class="cls-1" x="130.359" y="235.281" width="2.417" height="2.417"/><rect class="cls-1" x="130.359" y="238.907" width="2.417" height="2.417"/><rect class="cls-1" x="130.359" y="242.533" width="2.417" height="2.417"/><rect class="cls-1" x="130.359" y="246.159" width="2.417" height="2.417"/><rect class="cls-1" x="133.985" y="246.159" width="2.417" height="2.417"/><rect class="cls-1" x="130.359" y="249.785" width="2.417" height="2.417"/><rect class="cls-1" x="133.985" y="249.785" width="2.417" height="2.417"/><rect class="cls-1" x="130.359" y="253.41" width="2.417" height="2.417"/><rect class="cls-1" x="133.985" y="253.41" width="2.417" height="2.417"/><rect class="cls-1" x="137.611" y="224.404" width="2.417" height="2.417"/><rect class="cls-1" x="141.237" y="224.404" width="2.417" height="2.417"/><rect class="cls-1" x="137.611" y="228.03" width="2.417" height="2.417"/><rect class="cls-1" x="141.237" y="228.03" width="2.417" height="2.417"/><rect class="cls-2" x="137.611" y="231.656" width="2.417" height="2.417"/><rect class="cls-2" x="141.237" y="231.656" width="2.417" height="2.417"/><rect class="cls-2" x="137.611" y="246.159" width="2.417" height="2.417"/><rect class="cls-2" x="141.237" y="246.159" width="2.417" height="2.417"/><rect class="cls-1" x="137.611" y="249.785" width="2.417" height="2.417"/><rect class="cls-1" x="141.237" y="249.785" width="2.417" height="2.417"/><rect class="cls-1" x="137.611" y="253.41" width="2.417" height="2.417"/><rect class="cls-1" x="141.237" y="253.41" width="2.417" height="2.417"/><rect class="cls-1" x="144.862" y="224.404" width="2.417" height="2.417"/><rect class="cls-1" x="148.488" y="224.404" width="2.417" height="2.417"/><rect class="cls-1" x="144.862" y="228.03" width="2.417" height="2.417"/><rect class="cls-1" x="148.488" y="228.03" width="2.417" height="2.417"/><rect class="cls-2" x="144.862" y="231.656" width="2.417" height="2.417"/><rect class="cls-2" x="148.488" y="231.656" width="2.417" height="2.417"/><rect class="cls-2" x="144.862" y="246.159" width="2.417" height="2.417"/><rect class="cls-2" x="148.488" y="246.159" width="2.417" height="2.417"/><rect class="cls-1" x="144.862" y="249.785" width="2.417" height="2.417"/><rect class="cls-1" x="148.488" y="249.785" width="2.417" height="2.417"/><rect class="cls-1" x="144.862" y="253.41" width="2.417" height="2.417"/><rect class="cls-1" x="148.488" y="253.41" width="2.417" height="2.417"/><rect class="cls-1" x="152.114" y="224.404" width="2.417" height="2.417"/><rect class="cls-1" x="155.74" y="224.404" width="2.417" height="2.417"/><rect class="cls-1" x="152.114" y="228.03" width="2.417" height="2.417"/><rect class="cls-1" x="155.74" y="228.03" width="2.417" height="2.417"/><rect class="cls-2" x="152.114" y="231.656" width="2.417" height="2.417"/><rect class="cls-1" x="155.74" y="231.656" width="2.417" height="2.417"/><rect class="cls-1" x="133.985" y="235.281" width="2.417" height="2.417"/><rect class="cls-1" x="133.985" y="238.907" width="2.417" height="2.417"/><rect class="cls-1" x="133.985" y="242.533" width="2.417" height="2.417"/><rect class="cls-2" x="137.611" y="235.281" width="2.417" height="2.417"/><rect class="cls-2" x="141.237" y="235.281" width="2.417" height="2.417"/><rect class="cls-2" x="137.611" y="238.907" width="2.417" height="2.417"/><rect class="cls-2" x="141.237" y="238.907" width="2.417" height="2.417"/><rect class="cls-2" x="137.611" y="242.533" width="2.417" height="2.417"/><rect class="cls-2" x="141.237" y="242.533" width="2.417" height="2.417"/><rect class="cls-2" x="144.862" y="235.281" width="2.417" height="2.417"/><rect class="cls-2" x="148.488" y="235.281" width="2.417" height="2.417"/><rect class="cls-2" x="144.862" y="238.907" width="2.417" height="2.417"/><rect class="cls-2" x="148.488" y="238.907" width="2.417" height="2.417"/><rect class="cls-2" x="144.862" y="242.533" width="2.417" height="2.417"/><rect class="cls-2" x="148.488" y="242.533" width="2.417" height="2.417"/><rect class="cls-2" x="152.114" y="235.281" width="2.417" height="2.417"/><rect class="cls-1" x="155.74" y="235.281" width="2.417" height="2.417"/><rect class="cls-2" x="152.114" y="238.907" width="2.417" height="2.417"/><rect class="cls-1" x="155.74" y="238.907" width="2.417" height="2.417"/><rect class="cls-2" x="152.114" y="242.533" width="2.417" height="2.417"/><rect class="cls-1" x="155.74" y="242.533" width="2.417" height="2.417"/><rect class="cls-2" x="152.114" y="246.159" width="2.417" height="2.417"/><rect class="cls-1" x="155.74" y="246.159" width="2.417" height="2.417"/><rect class="cls-1" x="152.114" y="249.785" width="2.417" height="2.417"/><rect class="cls-1" x="155.74" y="249.785" width="2.417" height="2.417"/><rect class="cls-1" x="152.114" y="253.41" width="2.417" height="2.417"/><rect class="cls-1" x="159.365" y="224.404" width="2.417" height="2.417"/><rect class="cls-1" x="159.365" y="228.03" width="2.417" height="2.417"/><rect class="cls-1" x="159.365" y="231.656" width="2.417" height="2.417"/><rect class="cls-1" x="159.365" y="235.281" width="2.417" height="2.417"/><rect class="cls-1" x="159.365" y="238.907" width="2.417" height="2.417"/><rect class="cls-1" x="159.365" y="242.533" width="2.417" height="2.417"/><rect class="cls-1" x="159.365" y="246.159" width="2.417" height="2.417"/><rect class="cls-1" x="159.365" y="249.785" width="2.417" height="2.417"/><rect class="cls-1" x="159.365" y="253.41" width="2.417" height="2.417"/><rect class="cls-1" x="155.74" y="253.41" width="2.417" height="2.417"/><rect class="cls-3" x="125.525" y="219.57" width="41.092" height="41.092"/><rect class="cls-4" x="125.525" y="235.281" width="2.417" height="9.669"/><rect class="cls-4" x="164.2" y="235.281" width="2.417" height="9.669"/><rect class="cls-4" x="144.862" y="215.944" width="2.417" height="9.669" transform="translate(366.849 74.707) rotate(90)"/><rect class="cls-4" x="144.862" y="254.619" width="2.417" height="9.669" transform="translate(405.524 113.382) rotate(90)"/><rect class="cls-5" x="178.312" y="32.244" width="26.589" height="26.589" transform="translate(383.213 91.077) rotate(-180)"/><rect class="cls-6" x="190.398" y="52.79" width="2.417" height="9.669" transform="translate(249.231 -133.982) rotate(90)"/><rect class="cls-6" x="178.312" y="40.704" width="2.417" height="9.669" transform="translate(359.041 91.077) rotate(-180)"/><rect class="cls-6" x="190.398" y="28.618" width="2.417" height="9.669" transform="translate(158.154 225.059) rotate(-90)"/><rect class="cls-6" x="202.484" y="40.704" width="2.417" height="9.669"/><rect class="cls-6" x="192.815" y="37.078" width="7.252" height="7.252" transform="translate(392.882 81.408) rotate(-180)"/><rect class="cls-6" x="183.146" y="37.078" width="7.252" height="7.252" transform="translate(373.544 81.408) rotate(-180)"/><rect class="cls-6" x="192.815" y="46.747" width="7.252" height="7.252" transform="translate(392.882 100.746) rotate(-180)"/><rect class="cls-6" x="183.146" y="46.747" width="7.252" height="7.252" transform="translate(373.544 100.746) rotate(-180)"/><path class="cls-4" d="M479.072,148.367h-.782l-1.769-5.356h1.084l1.076,3.491,1.075-3.491h1.091Z"/><path class="cls-4" d="M482.584,148.367v-4.3l-1.09.948v-1.053l1.09-.948h.978v5.356Z"/><path class="cls-4" d="M486.7,148.412a1.545,1.545,0,0,1-1.633-1.595v-2.256a1.629,1.629,0,0,1,3.258,0v2.256A1.538,1.538,0,0,1,486.7,148.412Zm.647-3.836a.655.655,0,1,0-1.3,0v2.234a.654.654,0,1,0,1.3,0Z"/><path class="cls-4" d="M490.633,148.412A1.545,1.545,0,0,1,489,146.817v-2.256a1.629,1.629,0,0,1,3.258,0v2.256A1.538,1.538,0,0,1,490.633,148.412Zm.647-3.836a.655.655,0,1,0-1.3,0v2.234a.654.654,0,1,0,1.3,0Z"/><path class="cls-4" d="M481.392,156.077a2,2,0,0,1-1.512.61,1.964,1.964,0,0,1-1.444-.587,1.548,1.548,0,0,1-.436-.805,9.787,9.787,0,0,1,0-2.663,1.522,1.522,0,0,1,.436-.805,1.964,1.964,0,0,1,1.444-.587,1.918,1.918,0,0,1,2.016,1.715h-1.053a.912.912,0,0,0-.963-.782.856.856,0,0,0-.67.286c-.195.248-.255.444-.255,1.5s.045,1.264.255,1.512a.829.829,0,0,0,.67.278.966.966,0,0,0,.745-.3,1.053,1.053,0,0,0,.241-.715v-.2h-.986v-.872H481.9v.782A2.139,2.139,0,0,1,481.392,156.077Z"/><path class="cls-4" d="M484.807,154.626h-1.031v2.016h-1.045v-5.357h2.076a1.673,1.673,0,1,1,0,3.341Zm-.053-2.407h-.978v1.467h.978a.735.735,0,1,0,0-1.467Z"/><path class="cls-4" d="M489.192,156.687a1.862,1.862,0,0,1-1.971-1.881v-3.521h1.046v3.484a.931.931,0,1,0,1.858,0v-3.484h1.038v3.521A1.862,1.862,0,0,1,489.192,156.687Z"/><path class="cls-4" d="M387.387,148.367H386.6l-1.768-5.356h1.084L387,146.5l1.075-3.491h1.091Z"/><path class="cls-4" d="M390.9,148.367v-4.3l-1.09.948v-1.053l1.09-.948h.978v5.356Z"/><path class="cls-4" d="M395.014,148.412a1.545,1.545,0,0,1-1.633-1.595v-2.256a1.629,1.629,0,0,1,3.258,0v2.256A1.538,1.538,0,0,1,395.014,148.412Zm.647-3.836a.655.655,0,1,0-1.3,0v2.234a.654.654,0,1,0,1.3,0Z"/><path class="cls-4" d="M398.948,148.412a1.545,1.545,0,0,1-1.633-1.595v-2.256a1.629,1.629,0,0,1,3.258,0v2.256A1.538,1.538,0,0,1,398.948,148.412Zm.647-3.836a.655.655,0,1,0-1.3,0v2.234a.654.654,0,1,0,1.3,0Z"/><path class="cls-4" d="M389.707,156.077a2.006,2.006,0,0,1-1.512.61,1.968,1.968,0,0,1-1.445-.587,1.563,1.563,0,0,1-.436-.805,9.894,9.894,0,0,1,0-2.663,1.536,1.536,0,0,1,.436-.805,1.968,1.968,0,0,1,1.445-.587,1.918,1.918,0,0,1,2.016,1.715h-1.053a.912.912,0,0,0-.963-.782.856.856,0,0,0-.67.286c-.195.248-.255.444-.255,1.5s.045,1.264.255,1.512a.829.829,0,0,0,.67.278.967.967,0,0,0,.745-.3,1.053,1.053,0,0,0,.241-.715v-.2H388.2v-.872h2.024v.782A2.139,2.139,0,0,1,389.707,156.077Z"/><path class="cls-4" d="M393.122,154.626h-1.031v2.016h-1.045v-5.357h2.076a1.673,1.673,0,1,1,0,3.341Zm-.053-2.407h-.978v1.467h.978a.735.735,0,1,0,0-1.467Z"/><path class="cls-4" d="M397.507,156.687a1.862,1.862,0,0,1-1.971-1.881v-3.521h1.046v3.484a.931.931,0,1,0,1.858,0v-3.484h1.038v3.521A1.862,1.862,0,0,1,397.507,156.687Z"/><path class="cls-4" d="M479.072,239.19h-.782l-1.769-5.356h1.084l1.076,3.491,1.075-3.491h1.091Z"/><path class="cls-4" d="M482.584,239.19v-4.3l-1.09.947v-1.053l1.09-.948h.978v5.356Z"/><path class="cls-4" d="M486.7,239.235a1.544,1.544,0,0,1-1.633-1.594v-2.257a1.629,1.629,0,0,1,3.258,0v2.257A1.538,1.538,0,0,1,486.7,239.235Zm.647-3.836a.655.655,0,1,0-1.3,0v2.234a.654.654,0,1,0,1.3,0Z"/><path class="cls-4" d="M490.633,239.235A1.544,1.544,0,0,1,489,237.641v-2.257a1.629,1.629,0,0,1,3.258,0v2.257A1.538,1.538,0,0,1,490.633,239.235Zm.647-3.836a.655.655,0,1,0-1.3,0v2.234a.654.654,0,1,0,1.3,0Z"/><path class="cls-4" d="M481.392,246.9a2,2,0,0,1-1.512.61,1.964,1.964,0,0,1-1.444-.587,1.548,1.548,0,0,1-.436-.805,9.787,9.787,0,0,1,0-2.663,1.522,1.522,0,0,1,.436-.805,1.964,1.964,0,0,1,1.444-.587,1.919,1.919,0,0,1,2.016,1.715h-1.053a.912.912,0,0,0-.963-.782.856.856,0,0,0-.67.286c-.195.248-.255.445-.255,1.5s.045,1.264.255,1.512a.829.829,0,0,0,.67.278.966.966,0,0,0,.745-.3,1.05,1.05,0,0,0,.241-.714v-.2h-.986v-.872H481.9v.783A2.137,2.137,0,0,1,481.392,246.9Z"/><path class="cls-4" d="M484.807,245.449h-1.031v2.016h-1.045v-5.357h2.076a1.673,1.673,0,1,1,0,3.341Zm-.053-2.407h-.978v1.467h.978a.735.735,0,1,0,0-1.467Z"/><path class="cls-4" d="M489.192,247.51a1.862,1.862,0,0,1-1.971-1.881v-3.521h1.046v3.484a.931.931,0,1,0,1.858,0v-3.484h1.038v3.521A1.861,1.861,0,0,1,489.192,247.51Z"/><path class="cls-4" d="M387.387,239.19H386.6l-1.768-5.356h1.084L387,237.325l1.075-3.491h1.091Z"/><path class="cls-4" d="M390.9,239.19v-4.3l-1.09.947v-1.053l1.09-.948h.978v5.356Z"/><path class="cls-4" d="M395.014,239.235a1.544,1.544,0,0,1-1.633-1.594v-2.257a1.629,1.629,0,0,1,3.258,0v2.257A1.538,1.538,0,0,1,395.014,239.235Zm.647-3.836a.655.655,0,1,0-1.3,0v2.234a.654.654,0,1,0,1.3,0Z"/><path class="cls-4" d="M398.948,239.235a1.544,1.544,0,0,1-1.633-1.594v-2.257a1.629,1.629,0,0,1,3.258,0v2.257A1.538,1.538,0,0,1,398.948,239.235Zm.647-3.836a.655.655,0,1,0-1.3,0v2.234a.654.654,0,1,0,1.3,0Z"/><path class="cls-4" d="M389.707,246.9a2.006,2.006,0,0,1-1.512.61,1.968,1.968,0,0,1-1.445-.587,1.563,1.563,0,0,1-.436-.805,9.894,9.894,0,0,1,0-2.663,1.536,1.536,0,0,1,.436-.805,1.968,1.968,0,0,1,1.445-.587,1.919,1.919,0,0,1,2.016,1.715h-1.053A.912.912,0,0,0,388.2,243a.856.856,0,0,0-.67.286c-.195.248-.255.445-.255,1.5s.045,1.264.255,1.512a.829.829,0,0,0,.67.278.967.967,0,0,0,.745-.3,1.05,1.05,0,0,0,.241-.714v-.2H388.2v-.872h2.024v.783A2.137,2.137,0,0,1,389.707,246.9Z"/><path class="cls-4" d="M393.122,245.449h-1.031v2.016h-1.045v-5.357h2.076a1.673,1.673,0,1,1,0,3.341Zm-.053-2.407h-.978v1.467h.978a.735.735,0,1,0,0-1.467Z"/><path class="cls-4" d="M397.507,247.51a1.862,1.862,0,0,1-1.971-1.881v-3.521h1.046v3.484a.931.931,0,1,0,1.858,0v-3.484h1.038v3.521A1.862,1.862,0,0,1,397.507,247.51Z"/><path class="cls-6" d="M431.874,26.266a2.718,2.718,0,0,1-1.969-.8c-.737-.736-.726-1.569-.726-3.011s-.011-2.274.726-3.012a2.72,2.72,0,0,1,1.969-.8,2.58,2.58,0,0,1,2.674,2.3H433.39a1.55,1.55,0,0,0-2.621-.832c-.369.4-.454.832-.454,2.338s.085,1.938.454,2.337a1.557,1.557,0,0,0,2.631-.831h1.148A2.588,2.588,0,0,1,431.874,26.266Z"/><path class="cls-6" d="M438.7,23.254h-1.706V26.2h-1.137v-7.5H438.7a2.277,2.277,0,1,1,0,4.548Zm-.063-3.526h-1.643v2.495h1.643a1.25,1.25,0,1,0,0-2.495Z"/><path class="cls-6" d="M444.837,26.266a2.542,2.542,0,0,1-2.685-2.59v-4.97h1.138v4.917a1.554,1.554,0,1,0,3.106,0V18.706h1.137v4.97A2.551,2.551,0,0,1,444.837,26.266Z"/><path class="cls-4" d="M232.243,148.367h-.782l-1.768-5.356h1.083l1.076,3.491,1.076-3.491h1.091Z"/><path class="cls-4" d="M235.756,148.367v-4.3l-1.091.948v-1.053l1.091-.948h.978v5.356Z"/><path class="cls-4" d="M239.87,148.412a1.544,1.544,0,0,1-1.632-1.595v-2.256a1.629,1.629,0,0,1,3.257,0v2.256A1.538,1.538,0,0,1,239.87,148.412Zm.647-3.836a.655.655,0,1,0-1.3,0v2.234a.654.654,0,1,0,1.3,0Z"/><path class="cls-4" d="M243.805,148.412a1.545,1.545,0,0,1-1.633-1.595v-2.256a1.629,1.629,0,0,1,3.257,0v2.256A1.538,1.538,0,0,1,243.805,148.412Zm.646-3.836a.655.655,0,1,0-1.3,0v2.234a.654.654,0,1,0,1.3,0Z"/><path class="cls-4" d="M234.563,156.077a2,2,0,0,1-1.512.61,1.966,1.966,0,0,1-1.444-.587,1.548,1.548,0,0,1-.436-.805,9.894,9.894,0,0,1,0-2.663,1.522,1.522,0,0,1,.436-.805,1.966,1.966,0,0,1,1.444-.587,1.918,1.918,0,0,1,2.016,1.715h-1.053a.912.912,0,0,0-.963-.782.852.852,0,0,0-.669.286c-.195.248-.256.444-.256,1.5s.045,1.264.256,1.512a.827.827,0,0,0,.669.278.964.964,0,0,0,.745-.3,1.053,1.053,0,0,0,.241-.715v-.2h-.986v-.872h2.024v.782A2.139,2.139,0,0,1,234.563,156.077Z"/><path class="cls-4" d="M237.979,154.626h-1.031v2.016H235.9v-5.357h2.077a1.673,1.673,0,1,1,0,3.341Zm-.053-2.407h-.978v1.467h.978a.735.735,0,1,0,0-1.467Z"/><path class="cls-4" d="M242.364,156.687a1.862,1.862,0,0,1-1.971-1.881v-3.521h1.045v3.484a.931.931,0,1,0,1.858,0v-3.484h1.038v3.521A1.862,1.862,0,0,1,242.364,156.687Z"/><path class="cls-4" d="M140.558,148.367h-.783l-1.768-5.356h1.084l1.076,3.491,1.075-3.491h1.091Z"/><path class="cls-4" d="M144.07,148.367v-4.3l-1.091.948v-1.053l1.091-.948h.978v5.356Z"/><path class="cls-4" d="M148.185,148.412a1.545,1.545,0,0,1-1.633-1.595v-2.256a1.629,1.629,0,0,1,3.258,0v2.256A1.538,1.538,0,0,1,148.185,148.412Zm.647-3.836a.655.655,0,1,0-1.3,0v2.234a.654.654,0,1,0,1.3,0Z"/><path class="cls-4" d="M152.119,148.412a1.545,1.545,0,0,1-1.633-1.595v-2.256a1.629,1.629,0,0,1,3.258,0v2.256A1.538,1.538,0,0,1,152.119,148.412Zm.647-3.836a.655.655,0,1,0-1.3,0v2.234a.654.654,0,1,0,1.3,0Z"/><path class="cls-4" d="M142.878,156.077a2.006,2.006,0,0,1-1.512.61,1.966,1.966,0,0,1-1.445-.587,1.548,1.548,0,0,1-.436-.805,9.894,9.894,0,0,1,0-2.663,1.522,1.522,0,0,1,.436-.805,1.966,1.966,0,0,1,1.445-.587,1.919,1.919,0,0,1,2.016,1.715h-1.053a.912.912,0,0,0-.963-.782.854.854,0,0,0-.67.286c-.195.248-.256.444-.256,1.5s.046,1.264.256,1.512a.828.828,0,0,0,.67.278.967.967,0,0,0,.745-.3,1.053,1.053,0,0,0,.241-.715v-.2h-.986v-.872h2.024v.782A2.139,2.139,0,0,1,142.878,156.077Z"/><path class="cls-4" d="M146.293,154.626h-1.031v2.016h-1.045v-5.357h2.076a1.673,1.673,0,1,1,0,3.341Zm-.053-2.407h-.978v1.467h.978a.735.735,0,1,0,0-1.467Z"/><path class="cls-4" d="M150.678,156.687a1.862,1.862,0,0,1-1.971-1.881v-3.521h1.046v3.484a.931.931,0,1,0,1.858,0v-3.484h1.038v3.521A1.862,1.862,0,0,1,150.678,156.687Z"/><path class="cls-4" d="M232.243,239.19h-.782l-1.768-5.356h1.083l1.076,3.491,1.076-3.491h1.091Z"/><path class="cls-4" d="M235.756,239.19v-4.3l-1.091.947v-1.053l1.091-.948h.978v5.356Z"/><path class="cls-4" d="M239.87,239.235a1.544,1.544,0,0,1-1.632-1.594v-2.257a1.629,1.629,0,0,1,3.257,0v2.257A1.538,1.538,0,0,1,239.87,239.235Zm.647-3.836a.655.655,0,1,0-1.3,0v2.234a.654.654,0,1,0,1.3,0Z"/><path class="cls-4" d="M243.805,239.235a1.544,1.544,0,0,1-1.633-1.594v-2.257a1.629,1.629,0,0,1,3.257,0v2.257A1.538,1.538,0,0,1,243.805,239.235Zm.646-3.836a.655.655,0,1,0-1.3,0v2.234a.654.654,0,1,0,1.3,0Z"/><path class="cls-4" d="M234.563,246.9a2,2,0,0,1-1.512.61,1.966,1.966,0,0,1-1.444-.587,1.548,1.548,0,0,1-.436-.805,9.894,9.894,0,0,1,0-2.663,1.522,1.522,0,0,1,.436-.805,1.966,1.966,0,0,1,1.444-.587,1.918,1.918,0,0,1,2.016,1.715h-1.053a.912.912,0,0,0-.963-.782.852.852,0,0,0-.669.286c-.195.248-.256.445-.256,1.5s.045,1.264.256,1.512a.827.827,0,0,0,.669.278.964.964,0,0,0,.745-.3,1.05,1.05,0,0,0,.241-.714v-.2h-.986v-.872h2.024v.783A2.137,2.137,0,0,1,234.563,246.9Z"/><path class="cls-4" d="M237.979,245.449h-1.031v2.016H235.9v-5.357h2.077a1.673,1.673,0,1,1,0,3.341Zm-.053-2.407h-.978v1.467h.978a.735.735,0,1,0,0-1.467Z"/><path class="cls-4" d="M242.364,247.51a1.861,1.861,0,0,1-1.971-1.881v-3.521h1.045v3.484a.931.931,0,1,0,1.858,0v-3.484h1.038v3.521A1.861,1.861,0,0,1,242.364,247.51Z"/><path class="cls-4" d="M140.558,239.19h-.783l-1.768-5.356h1.084l1.076,3.491,1.075-3.491h1.091Z"/><path class="cls-4" d="M144.07,239.19v-4.3l-1.091.947v-1.053l1.091-.948h.978v5.356Z"/><path class="cls-4" d="M148.185,239.235a1.544,1.544,0,0,1-1.633-1.594v-2.257a1.629,1.629,0,0,1,3.258,0v2.257A1.538,1.538,0,0,1,148.185,239.235Zm.647-3.836a.655.655,0,1,0-1.3,0v2.234a.654.654,0,1,0,1.3,0Z"/><path class="cls-4" d="M152.119,239.235a1.544,1.544,0,0,1-1.633-1.594v-2.257a1.629,1.629,0,0,1,3.258,0v2.257A1.538,1.538,0,0,1,152.119,239.235Zm.647-3.836a.655.655,0,1,0-1.3,0v2.234a.654.654,0,1,0,1.3,0Z"/><path class="cls-4" d="M142.878,246.9a2.006,2.006,0,0,1-1.512.61,1.966,1.966,0,0,1-1.445-.587,1.548,1.548,0,0,1-.436-.805,9.894,9.894,0,0,1,0-2.663,1.522,1.522,0,0,1,.436-.805,1.966,1.966,0,0,1,1.445-.587,1.92,1.92,0,0,1,2.016,1.715h-1.053a.912.912,0,0,0-.963-.782.854.854,0,0,0-.67.286c-.195.248-.256.445-.256,1.5s.046,1.264.256,1.512a.828.828,0,0,0,.67.278.967.967,0,0,0,.745-.3,1.05,1.05,0,0,0,.241-.714v-.2h-.986v-.872h2.024v.783A2.137,2.137,0,0,1,142.878,246.9Z"/><path class="cls-4" d="M146.293,245.449h-1.031v2.016h-1.045v-5.357h2.076a1.673,1.673,0,1,1,0,3.341Zm-.053-2.407h-.978v1.467h.978a.735.735,0,1,0,0-1.467Z"/><path class="cls-4" d="M150.678,247.51a1.862,1.862,0,0,1-1.971-1.881v-3.521h1.046v3.484a.931.931,0,1,0,1.858,0v-3.484h1.038v3.521A1.862,1.862,0,0,1,150.678,247.51Z"/><path class="cls-6" d="M185.046,26.266a2.718,2.718,0,0,1-1.969-.8c-.737-.736-.726-1.569-.726-3.011s-.011-2.274.726-3.012a2.72,2.72,0,0,1,1.969-.8,2.58,2.58,0,0,1,2.674,2.3h-1.158a1.551,1.551,0,0,0-2.622-.832c-.368.4-.453.832-.453,2.338s.085,1.938.453,2.337a1.558,1.558,0,0,0,2.632-.831h1.148A2.588,2.588,0,0,1,185.046,26.266Z"/><path class="cls-6" d="M191.87,23.254h-1.706V26.2h-1.137v-7.5h2.843a2.277,2.277,0,1,1,0,4.548Zm-.063-3.526h-1.643v2.495h1.643a1.25,1.25,0,1,0,0-2.495Z"/><path class="cls-6" d="M198.009,26.266a2.542,2.542,0,0,1-2.685-2.59v-4.97h1.137v4.917a1.554,1.554,0,1,0,3.106,0V18.706h1.138v4.97A2.551,2.551,0,0,1,198.009,26.266Z"/><path class="cls-7" d="M276.688,334.691l-3.464-5.274v5.274h-1.138v-7.5h1.043l3.464,5.264V327.2h1.137v7.5Z"/><path class="cls-7" d="M282.111,334.691h-.884l-2.464-7.5h1.179l1.727,5.453L283.4,327.2h1.2Z"/><path class="cls-7" d="M285.629,334.691v-7.5h1.137v6.475h3.611v1.021Z"/><path class="cls-7" d="M291.516,328.3v-1.138h1.137V328.3Zm.031,6.39v-5.337h1.074v5.337Z"/><path class="cls-7" d="M297.581,334.691v-3.253a1.037,1.037,0,0,0-1.074-1.19,1.064,1.064,0,0,0-1.106,1.19v3.253h-1.073v-5.337h1.052v.537a1.909,1.909,0,0,1,1.422-.6,1.853,1.853,0,0,1,1.316.484,1.965,1.965,0,0,1,.537,1.506v3.411Z"/><path class="cls-7" d="M303.667,334.691l-1.495-2.463-.789.895v1.568h-1.074v-7.5h1.074v4.622l2.074-2.463h1.306l-1.854,2.094,2.085,3.243Z"/><path class="cls-7" d="M369.749,331.727h-1.706v2.948h-1.137v-7.5h2.843a2.277,2.277,0,1,1,0,4.548Zm-.063-3.527h-1.643v2.5h1.643a1.25,1.25,0,1,0,0-2.5Z"/><path class="cls-7" d="M375.952,334.738a2.717,2.717,0,0,1-1.969-.8c-.737-.737-.726-1.569-.726-3.011s-.011-2.275.726-3.012a2.717,2.717,0,0,1,1.969-.8,2.581,2.581,0,0,1,2.674,2.306h-1.158a1.55,1.55,0,0,0-2.621-.832c-.369.4-.453.832-.453,2.338s.084,1.937.453,2.337a1.5,1.5,0,0,0,1.105.453,1.515,1.515,0,0,0,1.527-1.284h1.147A2.587,2.587,0,0,1,375.952,334.738Z"/><path class="cls-7" d="M380.144,334.675v-7.5h1.137v7.5Z"/><path class="cls-7" d="M383.9,332.316a1.314,1.314,0,0,0,1.358,1.5,1.6,1.6,0,0,0,1.295-.548l.684.642a2.5,2.5,0,0,1-2,.832c-1.337,0-2.4-.706-2.4-2.737,0-1.728.895-2.728,2.264-2.728a2.27,2.27,0,0,1,2.264,2.57v.473Zm2.253-1.473a1.1,1.1,0,0,0-1.053-.674,1.113,1.113,0,0,0-1.063.674,1.666,1.666,0,0,0-.137.726h2.4A1.691,1.691,0,0,0,386.156,330.843Z"/><line class="cls-8" x1="241.642" y1="330.229" x2="265.713" y2="330.229"/><line class="cls-9" x1="336.465" y1="331.962" x2="360.535" y2="331.962"/><polyline class="cls-10" points="518.555 149.674 533.189 149.591 533.189 53.014 466.578 53.014"/><polygon class="cls-11" points="519.45 152.67 514.237 149.699 519.416 146.669 519.45 152.67"/><polygon class="cls-11" points="467.456 50.013 462.26 53.014 467.456 56.014 467.456 50.013"/><polyline class="cls-10" points="518.555 240.135 544.731 240.135 544.731 41.37 466.578 41.37"/><polygon class="cls-11" points="519.433 243.135 514.237 240.135 519.433 237.134 519.433 243.135"/><polygon class="cls-11" points="467.456 38.369 462.26 41.37 467.456 44.37 467.456 38.369"/><polyline class="cls-10" points="358.944 149.675 343.352 149.591 343.352 53.014 410.269 53.014"/><polygon class="cls-11" points="358.082 146.67 363.262 149.699 358.05 152.671 358.082 146.67"/><polygon class="cls-11" points="409.391 56.014 414.587 53.014 409.391 50.013 409.391 56.014"/><polyline class="cls-10" points="358.944 240.135 332.098 240.135 332.098 41.37 410.269 41.37"/><polygon class="cls-11" points="358.066 237.134 363.262 240.135 358.066 243.135 358.066 237.134"/><polygon class="cls-11" points="409.391 44.37 414.587 41.37 409.391 38.369 409.391 44.37"/><line class="cls-12" x1="392.9" y1="205.468" x2="392.9" y2="183.404"/><polygon class="cls-1" points="398.301 203.888 392.9 213.241 387.499 203.888 398.301 203.888"/><polygon class="cls-1" points="398.301 184.985 392.9 175.631 387.499 184.985 398.301 184.985"/><line class="cls-12" x1="452.051" y1="208.349" x2="425.433" y2="181.732"/><polygon class="cls-1" points="454.752 203.412 457.547 213.845 447.114 211.051 454.752 203.412"/><polygon class="cls-1" points="430.37 179.03 419.937 176.235 422.732 186.668 430.37 179.03"/><line class="cls-12" x1="425.433" y1="208.349" x2="452.051" y2="181.732"/><polygon class="cls-1" points="430.37 211.051 419.937 213.845 422.732 203.412 430.37 211.051"/><polygon class="cls-1" points="454.752 186.668 457.547 176.235 447.114 179.03 454.752 186.668"/><polyline class="cls-10" points="271.733 149.674 286.523 149.591 286.523 53.014 219.75 53.014"/><polygon class="cls-11" points="272.628 152.67 267.415 149.699 272.594 146.669 272.628 152.67"/><polygon class="cls-11" points="220.628 50.013 215.431 53.014 220.628 56.014 220.628 50.013"/><polyline class="cls-10" points="271.733 240.135 297.902 240.135 297.902 41.37 219.75 41.37"/><polygon class="cls-11" points="272.611 243.135 267.415 240.135 272.611 237.134 272.611 243.135"/><polygon class="cls-11" points="220.628 38.369 215.431 41.37 220.628 44.37 220.628 38.369"/><polyline class="cls-10" points="112.093 149.675 96.56 149.591 96.56 53.014 163.44 53.014"/><polygon class="cls-11" points="111.232 146.67 116.411 149.699 111.199 152.671 111.232 146.67"/><polygon class="cls-11" points="162.562 56.014 167.759 53.014 162.562 50.013 162.562 56.014"/><polyline class="cls-10" points="112.093 240.135 85.269 240.135 85.269 41.37 163.44 41.37"/><polygon class="cls-11" points="111.215 237.134 116.411 240.135 111.215 243.135 111.215 237.134"/><polygon class="cls-11" points="162.562 44.37 167.759 41.37 162.562 38.369 162.562 44.37"/><line class="cls-12" x1="237.756" y1="205.79" x2="237.756" y2="183.726"/><polygon class="cls-1" points="243.157 204.21 237.756 213.563 232.355 204.21 243.157 204.21"/><polygon class="cls-1" points="243.157 185.307 237.756 175.953 232.355 185.307 243.157 185.307"/><line class="cls-12" x1="205.222" y1="208.349" x2="178.605" y2="181.732"/><polygon class="cls-1" points="207.924 203.412 210.718 213.845 200.285 211.051 207.924 203.412"/><polygon class="cls-1" points="183.541 179.03 173.108 176.235 175.903 186.668 183.541 179.03"/><line class="cls-12" x1="178.605" y1="208.349" x2="205.222" y2="181.732"/><polygon class="cls-1" points="183.541 211.051 173.108 213.845 175.903 203.412 183.541 211.051"/><polygon class="cls-1" points="207.924 186.668 210.718 176.235 200.285 179.03 207.924 186.668"/><line class="cls-12" x1="202.945" y1="141.437" x2="180.881" y2="141.436"/><polygon class="cls-1" points="201.365 136.036 210.718 141.437 201.365 146.838 201.365 136.036"/><polygon class="cls-1" points="182.462 136.035 173.108 141.436 182.462 146.837 182.462 136.035"/><line class="cls-12" x1="202.945" y1="157.149" x2="180.881" y2="157.148"/><polygon class="cls-1" points="201.365 151.748 210.718 157.149 201.365 162.55 201.365 151.748"/><polygon class="cls-1" points="182.462 151.747 173.108 157.147 182.462 162.549 182.462 151.747"/><line class="cls-12" x1="153.926" y1="205.468" x2="153.927" y2="183.404"/><polygon class="cls-1" points="159.328 203.888 153.926 213.241 148.525 203.888 159.328 203.888"/><polygon class="cls-1" points="159.328 184.985 153.927 175.631 148.526 184.984 159.328 184.985"/><line class="cls-12" x1="138.215" y1="205.468" x2="138.216" y2="183.404"/><polygon class="cls-1" points="143.616 203.888 138.214 213.241 132.814 203.888 143.616 203.888"/><polygon class="cls-1" points="143.616 184.985 138.216 175.631 132.814 184.984 143.616 184.985"/><line class="cls-12" x1="492.44" y1="205.468" x2="492.441" y2="183.404"/><polygon class="cls-1" points="497.841 203.888 492.44 213.241 487.039 203.888 497.841 203.888"/><polygon class="cls-1" points="497.842 184.985 492.441 175.631 487.04 184.984 497.842 184.985"/><line class="cls-12" x1="476.728" y1="205.468" x2="476.729" y2="183.404"/><polygon class="cls-1" points="482.129 203.888 476.728 213.241 471.327 203.888 482.129 203.888"/><polygon class="cls-1" points="482.13 184.985 476.729 175.631 471.328 184.984 482.13 184.985"/><line class="cls-12" x1="202.945" y1="232.26" x2="180.881" y2="232.26"/><polygon class="cls-1" points="201.365 226.859 210.718 232.261 201.365 237.661 201.365 226.859"/><polygon class="cls-1" points="182.462 226.859 173.108 232.259 182.462 237.661 182.462 226.859"/><line class="cls-12" x1="202.945" y1="247.972" x2="180.881" y2="247.971"/><polygon class="cls-1" points="201.365 242.571 210.718 247.972 201.365 253.373 201.365 242.571"/><polygon class="cls-1" points="182.462 242.57 173.108 247.971 182.462 253.372 182.462 242.57"/><line class="cls-12" x1="449.774" y1="141.437" x2="427.71" y2="141.436"/><polygon class="cls-1" points="448.194 136.036 457.547 141.437 448.193 146.838 448.194 136.036"/><polygon class="cls-1" points="429.291 136.035 419.937 141.436 429.29 146.837 429.291 136.035"/><line class="cls-12" x1="449.774" y1="157.149" x2="427.71" y2="157.148"/><polygon class="cls-1" points="448.194 151.748 457.547 157.149 448.193 162.55 448.194 151.748"/><polygon class="cls-1" points="429.291 151.747 419.937 157.147 429.29 162.549 429.291 151.747"/><line class="cls-12" x1="449.774" y1="232.26" x2="427.71" y2="232.26"/><polygon class="cls-1" points="448.194 226.859 457.547 232.261 448.193 237.661 448.194 226.859"/><polygon class="cls-1" points="429.291 226.859 419.937 232.259 429.29 237.661 429.291 226.859"/><line class="cls-12" x1="449.774" y1="247.972" x2="427.71" y2="247.971"/><polygon class="cls-1" points="448.194 242.571 457.547 247.972 448.193 253.373 448.194 242.571"/><polygon class="cls-1" points="429.291 242.57 419.937 247.971 429.29 253.372 429.291 242.57"/><polyline class="cls-13" points="146.071 115 146.071 86.78 484.652 86.78 484.652 115"/><polygon class="cls-1" points="151.472 113.419 146.071 122.773 140.67 113.419 151.472 113.419"/><polygon class="cls-1" points="479.25 113.419 484.652 122.773 490.053 113.419 479.25 113.419"/><polyline class="cls-13" points="246.283 116.241 246.283 105.239 384.523 105.239 384.523 116.241"/><polygon class="cls-1" points="251.684 114.66 246.283 124.014 240.882 114.66 251.684 114.66"/><polygon class="cls-1" points="379.122 114.66 384.523 124.014 389.924 114.66 379.122 114.66"/><polyline class="cls-13" points="223.917 115 223.917 95.615 406.891 95.615 406.891 115"/><polygon class="cls-1" points="229.318 113.419 223.917 122.773 218.516 113.419 229.318 113.419"/><polygon class="cls-1" points="401.49 113.419 406.891 122.773 412.292 113.419 401.49 113.419"/><polyline class="cls-13" points="484.652 274.513 484.652 302.733 146.071 302.733 146.071 274.513"/><polygon class="cls-1" points="479.25 276.094 484.652 266.74 490.053 276.094 479.25 276.094"/><polygon class="cls-1" points="151.472 276.094 146.071 266.74 140.67 276.094 151.472 276.094"/><polyline class="cls-13" points="384.439 273.273 384.439 284.275 246.199 284.275 246.199 273.273"/><polygon class="cls-1" points="379.038 274.853 384.439 265.5 389.84 274.853 379.038 274.853"/><polygon class="cls-1" points="251.6 274.853 246.199 265.5 240.798 274.853 251.6 274.853"/><polyline class="cls-13" points="406.806 274.514 406.806 293.899 223.832 293.899 223.832 274.513"/><polygon class="cls-1" points="401.405 276.094 406.806 266.74 412.207 276.094 401.405 276.094"/><polygon class="cls-1" points="229.233 276.094 223.832 266.74 218.431 276.094 229.233 276.094"/></g><g id="Layer_3" data-name="Layer 3"><rect class="cls-2" width="630" height="354.375"/></g></svg>